<svg xmlns="http://www.w3.org/2000/svg" viewBox="0 0 410.26 400.16"><defs><style>.cls-1{fill:#fff;fill-rule:evenodd;}</style></defs><g id="Capa_2" data-name="Capa 2"><g id="LinkedIn_alt" data-name="LinkedIn alt"><path class="cls-1" d="M205.12,0C91.84,0,0,91.84,0,205.14A205.19,205.19,0,0,0,140.29,399.8c10.26,1.87,13.49-4.21,13.49-9.65,0-4.87.11-18.49,0-35.61-57,12.4-68.87-27-68.87-27-9.33-23.7-22.77-30-22.77-30C43.52,284.79,63.54,285,63.54,285,84.12,286.49,95,306.18,95,306.18c18.3,31.33,48,22.28,59.69,17.05,1.87-13.26,7.18-22.31,13-27.43C122.15,290.61,74.26,273,74.26,194.41c0-22.4,8-40.7,21.11-55-2.11-5.18-9.17-26.05,2-54.3,0,0,17.23-5.51,56.4,21.05a194.6,194.6,0,0,1,102.72,0c39.18-26.55,56.38-21.05,56.38-21.05,11.18,28.25,4.14,49.12,2,54.3C328,153.71,336,172,336,194.41c0,78.82-48,96.15-93.67,101.22,7.36,6.35,14,18.66,14,37.79V390.2c0,5.49,3.31,11.56,13.73,9.57A205.2,205.2,0,0,0,410.26,205.14C410.26,91.84,318.42,0,205.12,0Z"/></g></g></svg>