<svg xmlns="http://www.w3.org/2000/svg" viewBox="0 0 401.44 401.44"><defs><style>.cls-1{fill:#fff;}</style></defs><g id="Capa_2" data-name="Capa 2"><g id="LinkedIn_alt" data-name="LinkedIn alt"><path class="cls-1" d="M200.72,96.31c-56.65,0-103.6,46.14-103.6,103.6a103.28,103.28,0,0,0,103.6,103.6c57.47,0,103.6-46.94,103.6-103.6S257.38,96.31,200.72,96.31Zm0,170a66.37,66.37,0,1,1,66.37-66.37A66.67,66.67,0,0,1,200.72,266.28Z"/><circle class="cls-1" cx="308.37" cy="93.89" r="23.47"/><path class="cls-1" d="M369.07,33.18C348,11.33,318.08,0,284.09,0H117.36C46.94,0,0,46.94,0,117.36V283.28c0,34.8,11.33,64.75,34,86.6,21.86,21,51,31.56,84.18,31.56H283.28c34.8,0,63.94-11.33,85-31.56,21.85-21,33.18-51,33.18-85.79V117.36C401.44,83.36,390.11,54.23,369.07,33.18Zm-3.24,250.91c0,25.09-8.9,45.32-23.47,59.08s-34.8,21-59.08,21H118.17c-24.28,0-44.52-7.28-59.09-21-14.57-14.57-21.85-34.8-21.85-59.89V117.36c0-24.28,7.28-44.52,21.85-59.09,13.76-13.76,34.81-21,59.09-21H284.9c24.28,0,44.51,7.28,59.08,21.85,13.76,14.57,21.85,34.81,21.85,58.28V284.09Z"/></g></g></svg>