<svg xmlns="http://www.w3.org/2000/svg" viewBox="0 0 420 401.44"><defs><style>.cls-1{fill:#fff;}</style></defs><g id="Capa_2" data-name="Capa 2"><g id="LinkedIn_alt" data-name="LinkedIn alt"><path class="cls-1" d="M5.33,130.57h90V401.44h-90ZM50.93,0C20.13,0,0,20.22,0,46.77c0,26,19.54,46.81,49.76,46.81h.57c31.4,0,51-20.81,51-46.81C100.69,20.22,81.73,0,50.93,0ZM316.34,124.21c-47.78,0-69.19,26.28-81.13,44.71V130.57h-90c1.19,25.41,0,270.87,0,270.87h90V250.17c0-8.1.59-16.17,3-22,6.52-16.17,21.34-32.92,46.18-32.92,32.61,0,45.63,24.85,45.63,61.25V401.44h90V246.12C420,162.92,375.6,124.21,316.34,124.21Z"/></g></g></svg>