<svg xmlns="http://www.w3.org/2000/svg" viewBox="0 0 492.47 400.16"><defs><style>.cls-1{fill:#fff;}</style></defs><g id="Capa_2" data-name="Capa 2"><g id="LinkedIn_alt" data-name="LinkedIn alt"><path class="cls-1" d="M154.87,400.16c185.84,0,287.49-154,287.49-287.49,0-4.37,0-8.72-.3-13.06a205.3,205.3,0,0,0,50.41-52.3,201.79,201.79,0,0,1-58,15.9A101.37,101.37,0,0,0,478.86,7.32,202.38,202.38,0,0,1,414.7,31.85,101.15,101.15,0,0,0,341,0C285.55,0,239.89,45.65,239.89,101.13A101.18,101.18,0,0,0,242.51,124,287,287,0,0,1,34.28,18.43C7.61,64.34,21.41,123.83,65.56,153.31A100.12,100.12,0,0,1,19.7,140.66V142a101.36,101.36,0,0,0,81.06,99,100.77,100.77,0,0,1-45.62,1.73,101.35,101.35,0,0,0,94.39,70.17A202.82,202.82,0,0,1,24.05,356.23a205.62,205.62,0,0,1-24-1.46,286.1,286.1,0,0,0,154.87,45.31"/></g></g></svg>